%TF.GenerationSoftware,KiCad,Pcbnew,9.0.6-9.0.6~ubuntu24.04.1*%
%TF.CreationDate,2025-12-14T21:08:24-05:00*%
%TF.ProjectId,haxmas day 2,6861786d-6173-4206-9461-7920322e6b69,rev?*%
%TF.SameCoordinates,Original*%
%TF.FileFunction,Profile,NP*%
%FSLAX46Y46*%
G04 Gerber Fmt 4.6, Leading zero omitted, Abs format (unit mm)*
G04 Created by KiCad (PCBNEW 9.0.6-9.0.6~ubuntu24.04.1) date 2025-12-14 21:08:24*
%MOMM*%
%LPD*%
G01*
G04 APERTURE LIST*
%TA.AperFunction,Profile*%
%ADD10C,0.050000*%
%TD*%
G04 APERTURE END LIST*
D10*
X150150069Y-25001752D02*
X150349926Y-25011758D01*
X150549224Y-25029753D01*
X150747642Y-25055707D01*
X150944862Y-25089578D01*
X151140570Y-25131314D01*
X151334451Y-25180846D01*
X151526195Y-25238095D01*
X151715495Y-25302971D01*
X151902047Y-25375368D01*
X152085554Y-25455171D01*
X152265721Y-25542252D01*
X152442259Y-25636472D01*
X152614887Y-25737680D01*
X152783327Y-25845713D01*
X152947310Y-25960400D01*
X153106573Y-26081555D01*
X153260861Y-26208985D01*
X153409927Y-26342486D01*
X153553532Y-26481845D01*
X153691447Y-26626837D01*
X153823450Y-26777231D01*
X153949330Y-26932787D01*
X154068886Y-27093254D01*
X154181926Y-27258376D01*
X154288268Y-27427888D01*
X154387744Y-27601520D01*
X154480193Y-27778992D01*
X154565467Y-27960021D01*
X154643430Y-28144317D01*
X154713958Y-28331585D01*
X154776936Y-28521524D01*
X154832264Y-28713831D01*
X154879854Y-28908198D01*
X154919629Y-29104313D01*
X154951526Y-29301863D01*
X154975493Y-29500531D01*
X154991493Y-29699998D01*
X154999499Y-29899946D01*
X155000000Y-30000000D01*
X154999499Y-30100054D01*
X154991493Y-30300002D01*
X154975493Y-30499469D01*
X154951526Y-30698137D01*
X154919629Y-30895687D01*
X154879854Y-31091802D01*
X154832264Y-31286169D01*
X154776936Y-31478476D01*
X154713958Y-31668415D01*
X154643430Y-31855683D01*
X154565467Y-32039979D01*
X154480193Y-32221008D01*
X154387744Y-32398480D01*
X154288268Y-32572112D01*
X154181926Y-32741624D01*
X154068886Y-32906746D01*
X153949330Y-33067213D01*
X153911376Y-33114113D01*
X154572276Y-33155694D01*
X155302415Y-33209646D01*
X156031920Y-33271573D01*
X156760706Y-33341468D01*
X157488684Y-33419323D01*
X158215768Y-33505127D01*
X158941871Y-33598871D01*
X159666907Y-33700544D01*
X160390788Y-33810133D01*
X161113428Y-33927625D01*
X161834741Y-34053007D01*
X162554642Y-34186263D01*
X163273043Y-34327378D01*
X163989859Y-34476334D01*
X164705005Y-34633114D01*
X165418395Y-34797699D01*
X166129944Y-34970069D01*
X166839567Y-35150205D01*
X167547180Y-35338083D01*
X168252697Y-35533683D01*
X168956034Y-35736980D01*
X169657109Y-35947950D01*
X170355836Y-36166569D01*
X171052132Y-36392809D01*
X171745915Y-36626645D01*
X172437101Y-36868047D01*
X173125609Y-37116988D01*
X173811355Y-37373437D01*
X174494257Y-37637364D01*
X175174235Y-37908737D01*
X175851207Y-38187525D01*
X176525093Y-38473693D01*
X177195811Y-38767207D01*
X177863282Y-39068034D01*
X178527425Y-39376135D01*
X179188163Y-39691475D01*
X179845415Y-40014017D01*
X180499104Y-40343721D01*
X181149151Y-40680548D01*
X181795479Y-41024458D01*
X182438010Y-41375410D01*
X183076668Y-41733362D01*
X183711376Y-42098272D01*
X184342059Y-42470095D01*
X184968642Y-42848787D01*
X185591049Y-43234304D01*
X186209206Y-43626598D01*
X186823040Y-44025624D01*
X187432477Y-44431334D01*
X188037444Y-44843678D01*
X188637870Y-45262609D01*
X189233682Y-45688075D01*
X189824809Y-46120026D01*
X190411182Y-46558411D01*
X190992728Y-47003177D01*
X191569381Y-47454271D01*
X192141069Y-47911640D01*
X192707726Y-48375227D01*
X193269283Y-48844980D01*
X193825674Y-49320840D01*
X194376832Y-49802751D01*
X194922691Y-50290656D01*
X195463186Y-50784497D01*
X195998253Y-51284214D01*
X196527827Y-51789749D01*
X197051845Y-52301039D01*
X197570246Y-52818025D01*
X198082966Y-53340645D01*
X198589945Y-53868836D01*
X199091122Y-54402536D01*
X199586438Y-54941680D01*
X200075832Y-55486204D01*
X200559248Y-56036043D01*
X201036626Y-56591132D01*
X201507910Y-57151404D01*
X201973044Y-57716792D01*
X202431973Y-58287229D01*
X202884640Y-58862647D01*
X203330993Y-59442977D01*
X203770979Y-60028149D01*
X204204543Y-60618094D01*
X204631636Y-61212742D01*
X205052205Y-61812021D01*
X205466200Y-62415859D01*
X205873573Y-63024186D01*
X206274274Y-63636927D01*
X206668256Y-64254011D01*
X207055472Y-64875362D01*
X207435874Y-65500908D01*
X207809419Y-66130573D01*
X208176061Y-66764282D01*
X208535756Y-67401960D01*
X208888462Y-68043530D01*
X209234137Y-68688915D01*
X209572739Y-69338040D01*
X209904227Y-69990825D01*
X210228563Y-70647194D01*
X210545707Y-71307068D01*
X210855622Y-71970367D01*
X211158270Y-72637014D01*
X211453616Y-73306928D01*
X211741624Y-73980029D01*
X212022259Y-74656237D01*
X212295489Y-75335471D01*
X212561281Y-76017650D01*
X212819603Y-76702693D01*
X213070423Y-77390517D01*
X213313713Y-78081042D01*
X213549443Y-78774183D01*
X213777585Y-79469859D01*
X213998111Y-80167986D01*
X214210996Y-80868481D01*
X214416214Y-81571261D01*
X214613740Y-82276241D01*
X214803551Y-82983338D01*
X214985624Y-83692466D01*
X215159938Y-84403542D01*
X215326471Y-85116479D01*
X215485204Y-85831194D01*
X215636118Y-86547601D01*
X215779194Y-87265614D01*
X215914417Y-87985148D01*
X216041768Y-88706116D01*
X216161235Y-89428433D01*
X216272801Y-90152012D01*
X216376454Y-90876766D01*
X216472181Y-91602611D01*
X216559971Y-92329458D01*
X216639814Y-93057220D01*
X216711700Y-93785812D01*
X216775620Y-94515146D01*
X216831566Y-95245135D01*
X216879533Y-95975691D01*
X216919514Y-96706728D01*
X216951505Y-97438159D01*
X216975501Y-98169895D01*
X216991500Y-98901849D01*
X216999500Y-99633935D01*
X217000000Y-100000000D01*
X216999500Y-100366065D01*
X216991500Y-101098151D01*
X216975501Y-101830105D01*
X216951505Y-102561841D01*
X216919514Y-103293272D01*
X216879533Y-104024309D01*
X216831566Y-104754865D01*
X216775620Y-105484854D01*
X216711700Y-106214188D01*
X216639814Y-106942780D01*
X216559971Y-107670542D01*
X216472181Y-108397389D01*
X216376454Y-109123234D01*
X216272801Y-109847988D01*
X216161235Y-110571567D01*
X216041768Y-111293884D01*
X215914417Y-112014852D01*
X215779194Y-112734386D01*
X215636118Y-113452399D01*
X215485204Y-114168806D01*
X215326471Y-114883521D01*
X215159938Y-115596458D01*
X214985624Y-116307534D01*
X214803551Y-117016662D01*
X214613740Y-117723759D01*
X214416214Y-118428739D01*
X214210996Y-119131519D01*
X213998111Y-119832014D01*
X213777585Y-120530141D01*
X213549443Y-121225817D01*
X213313713Y-121918958D01*
X213070423Y-122609483D01*
X212819603Y-123297307D01*
X212561281Y-123982350D01*
X212295489Y-124664529D01*
X212022259Y-125343763D01*
X211741624Y-126019971D01*
X211453616Y-126693072D01*
X211158270Y-127362986D01*
X210855622Y-128029633D01*
X210545707Y-128692932D01*
X210228563Y-129352806D01*
X209904227Y-130009175D01*
X209572739Y-130661960D01*
X209234137Y-131311085D01*
X208888462Y-131956470D01*
X208535756Y-132598040D01*
X208176061Y-133235718D01*
X207809419Y-133869427D01*
X207435874Y-134499092D01*
X207055472Y-135124638D01*
X206668256Y-135745989D01*
X206274274Y-136363073D01*
X205873573Y-136975814D01*
X205466200Y-137584141D01*
X205052205Y-138187979D01*
X204631636Y-138787258D01*
X204204543Y-139381906D01*
X203770979Y-139971851D01*
X203330993Y-140557023D01*
X202884640Y-141137353D01*
X202431973Y-141712771D01*
X201973044Y-142283208D01*
X201507910Y-142848596D01*
X201036626Y-143408868D01*
X200559248Y-143963957D01*
X200075832Y-144513796D01*
X199586438Y-145058320D01*
X199091122Y-145597464D01*
X198589945Y-146131164D01*
X198082966Y-146659355D01*
X197570246Y-147181975D01*
X197051845Y-147698961D01*
X196527827Y-148210251D01*
X195998253Y-148715786D01*
X195463186Y-149215503D01*
X194922691Y-149709344D01*
X194376832Y-150197249D01*
X193825674Y-150679160D01*
X193269283Y-151155020D01*
X192707726Y-151624773D01*
X192141069Y-152088360D01*
X191569381Y-152545729D01*
X190992728Y-152996823D01*
X190411182Y-153441589D01*
X189824809Y-153879974D01*
X189233682Y-154311925D01*
X188637870Y-154737391D01*
X188037444Y-155156322D01*
X187432477Y-155568666D01*
X186823040Y-155974376D01*
X186209206Y-156373402D01*
X185591049Y-156765696D01*
X184968642Y-157151213D01*
X184342059Y-157529905D01*
X183711376Y-157901728D01*
X183076668Y-158266638D01*
X182438010Y-158624590D01*
X181795479Y-158975542D01*
X181149151Y-159319452D01*
X180499104Y-159656279D01*
X179845415Y-159985983D01*
X179188163Y-160308525D01*
X178527425Y-160623865D01*
X177863282Y-160931966D01*
X177195811Y-161232793D01*
X176525093Y-161526307D01*
X175851207Y-161812475D01*
X175174235Y-162091263D01*
X174494257Y-162362636D01*
X173811355Y-162626563D01*
X173125609Y-162883012D01*
X172437101Y-163131953D01*
X171745915Y-163373355D01*
X171052132Y-163607191D01*
X170355836Y-163833431D01*
X169657109Y-164052050D01*
X168956034Y-164263020D01*
X168252697Y-164466317D01*
X167547180Y-164661917D01*
X166839567Y-164849795D01*
X166129944Y-165029931D01*
X165418395Y-165202301D01*
X164705005Y-165366886D01*
X163989859Y-165523666D01*
X163273043Y-165672622D01*
X162554642Y-165813737D01*
X161834741Y-165946993D01*
X161113428Y-166072375D01*
X160390788Y-166189867D01*
X159666907Y-166299456D01*
X158941871Y-166401129D01*
X158215768Y-166494873D01*
X157488684Y-166580677D01*
X156760706Y-166658532D01*
X156031920Y-166728427D01*
X155302415Y-166790354D01*
X154572276Y-166844306D01*
X153841591Y-166890277D01*
X153110447Y-166928261D01*
X152378933Y-166958253D01*
X151647134Y-166980250D01*
X150915138Y-166994250D01*
X150183033Y-167000250D01*
X149450906Y-166998250D01*
X148718845Y-166988250D01*
X147986937Y-166970251D01*
X147255269Y-166944256D01*
X146523929Y-166910268D01*
X145793004Y-166868290D01*
X145062581Y-166818328D01*
X144332748Y-166760387D01*
X143603591Y-166694475D01*
X142875199Y-166620599D01*
X142147657Y-166538768D01*
X141421052Y-166448993D01*
X140695472Y-166351283D01*
X139971003Y-166245651D01*
X139247732Y-166132108D01*
X138525744Y-166010669D01*
X137805126Y-165881348D01*
X137085965Y-165744161D01*
X136368345Y-165599123D01*
X135652354Y-165446253D01*
X134938075Y-165285568D01*
X134225595Y-165117088D01*
X133514998Y-164940832D01*
X132806370Y-164756823D01*
X132099795Y-164565081D01*
X131395357Y-164365629D01*
X130693140Y-164158493D01*
X129993229Y-163943695D01*
X129295707Y-163721262D01*
X128600657Y-163491221D01*
X127908162Y-163253598D01*
X127218305Y-163008423D01*
X126531168Y-162755724D01*
X125846834Y-162495532D01*
X125165383Y-162227878D01*
X124486898Y-161952794D01*
X123811459Y-161670312D01*
X123139147Y-161380466D01*
X122470043Y-161083291D01*
X121804226Y-160778823D01*
X121141775Y-160467097D01*
X120482770Y-160148152D01*
X119827290Y-159822024D01*
X119175412Y-159488754D01*
X118527215Y-159148380D01*
X117882776Y-158800943D01*
X117242172Y-158446486D01*
X116605480Y-158085050D01*
X115972775Y-157716678D01*
X115344132Y-157341415D01*
X114719628Y-156959305D01*
X114099337Y-156570393D01*
X113483332Y-156174727D01*
X112871687Y-155772353D01*
X112264476Y-155363320D01*
X111661771Y-154947677D01*
X111063643Y-154525472D01*
X110470164Y-154096757D01*
X109881406Y-153661582D01*
X109297438Y-153220000D01*
X108718329Y-152772063D01*
X108144150Y-152317825D01*
X107574969Y-151857340D01*
X107010854Y-151390664D01*
X106451871Y-150917850D01*
X105898089Y-150438957D01*
X105349572Y-149954042D01*
X104806387Y-149463161D01*
X104268598Y-148966375D01*
X103736270Y-148463742D01*
X103209466Y-147955322D01*
X102688248Y-147441176D01*
X102172680Y-146921365D01*
X101662823Y-146395952D01*
X101158737Y-145864998D01*
X100660484Y-145328569D01*
X100168121Y-144786727D01*
X99681709Y-144239537D01*
X99201305Y-143687064D01*
X98726967Y-143129376D01*
X98258750Y-142566537D01*
X97796712Y-141998616D01*
X97340908Y-141425680D01*
X96891390Y-140847798D01*
X96448215Y-140265038D01*
X96011433Y-139677471D01*
X95581098Y-139085165D01*
X95157261Y-138488193D01*
X94739973Y-137886625D01*
X94329282Y-137280534D01*
X93925239Y-136669991D01*
X93527892Y-136055069D01*
X93137287Y-135435842D01*
X92753473Y-134812384D01*
X92376493Y-134184770D01*
X92006395Y-133553073D01*
X91643220Y-132917370D01*
X91287014Y-132277737D01*
X90937819Y-131634250D01*
X90595676Y-130986985D01*
X90260625Y-130336020D01*
X89932708Y-129681433D01*
X89611964Y-129023302D01*
X89298430Y-128361706D01*
X88992144Y-127696723D01*
X88693142Y-127028433D01*
X88401461Y-126356915D01*
X88117135Y-125682251D01*
X87840198Y-125004519D01*
X87570683Y-124323803D01*
X87308622Y-123640181D01*
X87054048Y-122953738D01*
X86806989Y-122264553D01*
X86567475Y-121572710D01*
X86335536Y-120878291D01*
X86111199Y-120181379D01*
X85894490Y-119482057D01*
X85685435Y-118780409D01*
X85484060Y-118076519D01*
X85290389Y-117370470D01*
X85104444Y-116662347D01*
X84926248Y-115952234D01*
X84755822Y-115240217D01*
X84593186Y-114526380D01*
X84438361Y-113810808D01*
X84291363Y-113093588D01*
X84152212Y-112374804D01*
X84020923Y-111654542D01*
X83897512Y-110932889D01*
X83781994Y-110209930D01*
X83674383Y-109485753D01*
X83574691Y-108760442D01*
X83482931Y-108034086D01*
X83399113Y-107306770D01*
X83323248Y-106578582D01*
X83255344Y-105849608D01*
X83195410Y-105119936D01*
X83143452Y-104389652D01*
X83099478Y-103658845D01*
X83063492Y-102927600D01*
X83035498Y-102196006D01*
X83015500Y-101464150D01*
X83003500Y-100732119D01*
X82999500Y-100000000D01*
X83003500Y-99267881D01*
X83015500Y-98535850D01*
X83035498Y-97803994D01*
X83063492Y-97072400D01*
X83099478Y-96341155D01*
X83143452Y-95610348D01*
X83195410Y-94880064D01*
X83255344Y-94150392D01*
X83323248Y-93421418D01*
X83399113Y-92693230D01*
X83482931Y-91965914D01*
X83574691Y-91239558D01*
X83674383Y-90514247D01*
X83781994Y-89790070D01*
X83897512Y-89067111D01*
X84020923Y-88345458D01*
X84152212Y-87625196D01*
X84291363Y-86906412D01*
X84438361Y-86189192D01*
X84593186Y-85473620D01*
X84755822Y-84759783D01*
X84926248Y-84047766D01*
X85104444Y-83337653D01*
X85290389Y-82629530D01*
X85484060Y-81923481D01*
X85685435Y-81219591D01*
X85894490Y-80517943D01*
X86111199Y-79818621D01*
X86335536Y-79121709D01*
X86567475Y-78427290D01*
X86806989Y-77735447D01*
X87054048Y-77046262D01*
X87308622Y-76359819D01*
X87570683Y-75676197D01*
X87840198Y-74995481D01*
X88117135Y-74317749D01*
X88401461Y-73643085D01*
X88693142Y-72971567D01*
X88992144Y-72303277D01*
X89298430Y-71638294D01*
X89611964Y-70976698D01*
X89932708Y-70318567D01*
X90260625Y-69663980D01*
X90595676Y-69013015D01*
X90937819Y-68365750D01*
X91287014Y-67722263D01*
X91643220Y-67082630D01*
X92006395Y-66446927D01*
X92376493Y-65815230D01*
X92753473Y-65187616D01*
X93137287Y-64564158D01*
X93527892Y-63944931D01*
X93925239Y-63330009D01*
X94329282Y-62719466D01*
X94739973Y-62113375D01*
X95157261Y-61511807D01*
X95581098Y-60914835D01*
X96011433Y-60322529D01*
X96448215Y-59734962D01*
X96891390Y-59152202D01*
X97340908Y-58574320D01*
X97796712Y-58001384D01*
X98258750Y-57433463D01*
X98726967Y-56870624D01*
X99201305Y-56312936D01*
X99681709Y-55760463D01*
X100168121Y-55213273D01*
X100660484Y-54671431D01*
X101158737Y-54135002D01*
X101662823Y-53604048D01*
X102172680Y-53078635D01*
X102688248Y-52558824D01*
X103209466Y-52044678D01*
X103736270Y-51536258D01*
X104268598Y-51033625D01*
X104806387Y-50536839D01*
X105349572Y-50045958D01*
X105898089Y-49561043D01*
X106451871Y-49082150D01*
X107010854Y-48609336D01*
X107574969Y-48142660D01*
X108144150Y-47682175D01*
X108718329Y-47227937D01*
X109297438Y-46780000D01*
X109881406Y-46338418D01*
X110470164Y-45903243D01*
X111063643Y-45474528D01*
X111661771Y-45052323D01*
X112264476Y-44636680D01*
X112871687Y-44227647D01*
X113483332Y-43825273D01*
X114099337Y-43429607D01*
X114719628Y-43040695D01*
X115344132Y-42658585D01*
X115972775Y-42283322D01*
X116605480Y-41914950D01*
X117242172Y-41553514D01*
X117882776Y-41199057D01*
X118527215Y-40851620D01*
X119175412Y-40511246D01*
X119827290Y-40177976D01*
X120482770Y-39851848D01*
X121141775Y-39532903D01*
X121804226Y-39221177D01*
X122470043Y-38916709D01*
X123139147Y-38619534D01*
X123811459Y-38329688D01*
X124486898Y-38047206D01*
X125165383Y-37772122D01*
X125846834Y-37504468D01*
X126531168Y-37244276D01*
X127218305Y-36991577D01*
X127908162Y-36746402D01*
X128600657Y-36508779D01*
X129295707Y-36278738D01*
X129993229Y-36056305D01*
X130693140Y-35841507D01*
X131395357Y-35634371D01*
X132099795Y-35434919D01*
X132806370Y-35243177D01*
X133514998Y-35059168D01*
X134225595Y-34882912D01*
X134938075Y-34714432D01*
X135652354Y-34553747D01*
X136368345Y-34400877D01*
X137085965Y-34255839D01*
X137805126Y-34118652D01*
X138525744Y-33989331D01*
X139247732Y-33867892D01*
X139971003Y-33754349D01*
X140695472Y-33648717D01*
X141421052Y-33551007D01*
X142147657Y-33461232D01*
X142875199Y-33379401D01*
X143603591Y-33305525D01*
X144332748Y-33239613D01*
X145062581Y-33181672D01*
X145793004Y-33131710D01*
X146088833Y-33114720D01*
X145990089Y-32987578D01*
X145873768Y-32824751D01*
X145764055Y-32657400D01*
X145661125Y-32485794D01*
X145565144Y-32310207D01*
X145476264Y-32130920D01*
X145394629Y-31948221D01*
X145320369Y-31762402D01*
X145253603Y-31573761D01*
X145194438Y-31382599D01*
X145142969Y-31189223D01*
X145099277Y-30993943D01*
X145063434Y-30797071D01*
X145035496Y-30598923D01*
X145015509Y-30399816D01*
X145003503Y-30200068D01*
X144999500Y-30000000D01*
X145003503Y-29799932D01*
X145015509Y-29600184D01*
X145035496Y-29401077D01*
X145063434Y-29202929D01*
X145099277Y-29006057D01*
X145142969Y-28810777D01*
X145194438Y-28617401D01*
X145253603Y-28426239D01*
X145320369Y-28237598D01*
X145394629Y-28051779D01*
X145476264Y-27869080D01*
X145565144Y-27689793D01*
X145661125Y-27514206D01*
X145764055Y-27342600D01*
X145873768Y-27175249D01*
X145990089Y-27012422D01*
X146112832Y-26854379D01*
X146241799Y-26701374D01*
X146376785Y-26553651D01*
X146517574Y-26411447D01*
X146663939Y-26274990D01*
X146815646Y-26144498D01*
X146972453Y-26020181D01*
X147134108Y-25902236D01*
X147300353Y-25790854D01*
X147470921Y-25686213D01*
X147645539Y-25588479D01*
X147823927Y-25497810D01*
X148005800Y-25414351D01*
X148190867Y-25338236D01*
X148378831Y-25269586D01*
X148569391Y-25208511D01*
X148762242Y-25155110D01*
X148957075Y-25109467D01*
X149153579Y-25071656D01*
X149351437Y-25041737D01*
X149550335Y-25019758D01*
X149749952Y-25005755D01*
X149949970Y-24999750D01*
X150150069Y-25001752D01*
X152000000Y-30000000D02*
G75*
G02*
X148000000Y-30000000I-2000000J0D01*
G01*
X148000000Y-30000000D02*
G75*
G02*
X152000000Y-30000000I2000000J0D01*
G01*
M02*
